<svg width="20" height="20" viewBox="0 0 20 20" fill="none" xmlns="http://www.w3.org/2000/svg">
<path d="M19.825 4.54625C19.6766 4.36375 19.4539 4.25781 19.2188 4.25781H5.06781L5.00984 3.72531L5.00777 3.7082C4.73043 1.59422 2.9134 0 0.78125 0C0.349766 0 0 0.349766 0 0.78125C0 1.21273 0.349766 1.5625 0.78125 1.5625C2.12914 1.5625 3.27824 2.56832 3.4575 3.90344L4.38613 12.4347C3.57402 12.8033 3.00781 13.622 3.00781 14.5703C3.00781 14.5768 3.00789 14.5834 3.00805 14.5898C3.00789 14.5963 3.00781 14.6029 3.00781 14.6094C3.00781 15.9017 4.05922 16.9531 5.35156 16.9531H5.66945C5.59 17.1861 5.54688 17.4357 5.54688 17.6953C5.54688 18.9661 6.58074 20 7.85156 20C9.12238 20 10.1563 18.9661 10.1563 17.6953C10.1563 17.4357 10.1131 17.1861 10.0337 16.9531H13.4039C13.3244 17.1861 13.2813 17.4357 13.2813 17.6953C13.2813 18.9661 14.3152 20 15.586 20C16.8568 20 17.8907 18.9661 17.8907 17.6953C17.8907 16.4245 16.8568 15.3906 15.586 15.3906H5.35156C4.92078 15.3906 4.57031 15.0402 4.57031 14.6094C4.57031 14.6029 4.57024 14.5963 4.57008 14.5898C4.57024 14.5834 4.57031 14.5768 4.57031 14.5703C4.57031 14.1395 4.92078 13.7891 5.35156 13.7891H15.3254C16.7123 13.7891 17.985 12.931 18.5679 11.603C18.7413 11.208 18.5616 10.7471 18.1665 10.5737C17.7714 10.4003 17.3105 10.58 17.1371 10.975C16.8086 11.7236 16.0805 12.2266 15.3254 12.2266H5.9352L5.23789 5.82031H18.2577L17.8755 7.65297C17.7874 8.07535 18.0584 8.48918 18.4807 8.57727C18.5345 8.58852 18.5882 8.59391 18.6411 8.59391C19.0032 8.59391 19.3282 8.34063 19.405 7.97203L19.9835 5.19859C20.0316 4.96836 19.9733 4.72875 19.825 4.54625ZM15.5859 16.9531C15.9952 16.9531 16.3281 17.2861 16.3281 17.6953C16.3281 18.1046 15.9952 18.4375 15.5859 18.4375C15.1767 18.4375 14.8438 18.1046 14.8438 17.6953C14.8438 17.2861 15.1767 16.9531 15.5859 16.9531ZM7.85156 16.9531C8.26082 16.9531 8.59375 17.2861 8.59375 17.6953C8.59375 18.1046 8.26082 18.4375 7.85156 18.4375C7.44231 18.4375 7.10938 18.1046 7.10938 17.6953C7.10938 17.2861 7.44231 16.9531 7.85156 16.9531Z" fill="#4D4D4D"/>
</svg>
