<svg width="15" height="15" viewBox="0 0 15 15" fill="none" xmlns="http://www.w3.org/2000/svg">
<path fill-rule="evenodd" clip-rule="evenodd" d="M7.21206 0C7.68999 0 8.07745 0.387444 8.07745 0.865385V11.25C8.07745 11.7279 7.68999 12.1154 7.21206 12.1154C6.73414 12.1154 6.34668 11.7279 6.34668 11.25V0.865385C6.34668 0.387444 6.73414 0 7.21206 0Z" fill="#4D4D4D"/>
<path fill-rule="evenodd" clip-rule="evenodd" d="M1.40679 5.44581C1.74474 5.10791 2.29267 5.10791 2.63063 5.44581L7.21101 10.0262L11.7914 5.44581C12.1293 5.10791 12.6773 5.10791 13.0153 5.44581C13.3532 5.78377 13.3532 6.33173 13.0153 6.6697L7.82296 11.862C7.48499 12.1999 6.93703 12.1999 6.59907 11.862L1.40679 6.6697C1.06883 6.33173 1.06883 5.78377 1.40679 5.44581V5.44581Z" fill="#4D4D4D"/>
<path fill-rule="evenodd" clip-rule="evenodd" d="M0 14.1347C0 13.6567 0.387444 13.2693 0.865385 13.2693H13.5577C14.0356 13.2693 14.4231 13.6567 14.4231 14.1347C14.4231 14.6126 14.0356 15.0001 13.5577 15.0001H0.865385C0.387444 15.0001 0 14.6126 0 14.1347Z" fill="#4D4D4D"/>
</svg>
