<svg width="15" height="15" viewBox="0 0 15 15" fill="none" xmlns="http://www.w3.org/2000/svg">
<g clip-path="url(#clip0_24_1720)">
<path d="M14.5 14.3042H5.49988C5.22388 14.3042 4.99988 14.0802 4.99988 13.8042C4.99988 13.5282 5.22388 13.3042 5.49988 13.3042H14.5C14.776 13.3042 15 13.5282 15 13.8042C15 14.0802 14.776 14.3042 14.5 14.3042Z" fill="#B3B3B3"/>
<path d="M0.499867 14.3042C0.368518 14.3042 0.241197 14.2529 0.14647 14.1576C0.0237878 14.0349 -0.0261396 13.8583 0.0131675 13.6896L0.73986 10.6062C0.761222 10.5156 0.807121 10.4328 0.873162 10.3675L10.0659 1.17479C10.6313 0.608748 11.6206 0.607405 12.1872 1.17479L13.13 2.11743C13.4133 2.40076 13.5693 2.77747 13.5693 3.17811C13.5693 3.57887 13.4133 3.9562 13.13 4.23879L3.93716 13.4309C3.87124 13.4969 3.78848 13.543 3.69851 13.5642L0.615103 14.2909C0.576528 14.3003 0.537831 14.3042 0.499867 14.3042V14.3042ZM1.68054 10.9736L1.17187 13.1322L3.33059 12.6235L12.4226 3.53151C12.5173 3.43678 12.5693 3.31154 12.5693 3.17811C12.5693 3.04481 12.5173 2.91883 12.4226 2.82484L11.48 1.88147C11.2912 1.69274 10.9613 1.69274 10.7733 1.88147L1.68054 10.9736ZM3.58315 13.0776H3.58987H3.58315Z" fill="#B3B3B3"/>
<path d="M10.7593 6.40162C10.6314 6.40162 10.5033 6.35291 10.406 6.25489L8.04859 3.89756C7.85327 3.70225 7.85327 3.38559 8.04859 3.19028C8.24402 2.99484 8.56068 2.99484 8.75599 3.19028L11.1133 5.5476C11.3086 5.74292 11.3086 6.05957 11.1133 6.25489C11.0153 6.35291 10.8874 6.40162 10.7593 6.40162V6.40162Z" fill="#B3B3B3"/>
</g>
<defs>
<clipPath id="clip0_24_1720">
<rect width="15" height="15" fill="white"/>
</clipPath>
</defs>
</svg>
