<svg width="15" height="15" viewBox="0 0 15 15" fill="none" xmlns="http://www.w3.org/2000/svg">
<path d="M14.1499 4.61348C14.1274 4.61348 14.0935 4.61348 14.071 4.61348C10.1679 4.22994 6.28732 4.072 2.44066 4.46682L0.929047 4.61348C0.455261 4.6586 0.0491584 4.32018 0.00403585 3.85768C-0.0410867 3.39517 0.297332 2.97778 0.759838 2.93265L2.27144 2.786C6.23092 2.39118 10.2243 2.53783 14.2402 2.93265C14.7027 2.97778 15.0411 3.39517 14.996 3.85768C14.9508 4.28634 14.5786 4.61348 14.1499 4.61348Z" fill="#B3B3B3"/>
<path d="M10.0776 3.86924C9.67154 3.86924 9.31056 3.57596 9.24288 3.16986L9.08495 2.21099C9.06239 2.05306 9.01727 1.80489 8.97215 1.74849C8.97215 1.74849 8.85934 1.6808 8.45324 1.6808H6.51297C6.09559 1.6808 5.98278 1.74849 5.98278 1.74849C5.96022 1.79361 5.9151 2.04179 5.89253 2.19972L5.73461 3.16986C5.65564 3.63236 5.21569 3.93693 4.76446 3.86924C4.30196 3.79028 3.99738 3.35033 4.06506 2.89911L4.22299 1.92898C4.34708 1.20702 4.55013 0 6.51297 0H8.45324C10.4273 0 10.6304 1.26342 10.7432 1.94026L10.9011 2.89911C10.9801 3.36162 10.6642 3.80156 10.213 3.86924C10.1792 3.86924 10.1228 3.86924 10.0776 3.86924V3.86924Z" fill="#B3B3B3"/>
<path d="M9.86328 14.2132H5.11414C2.26014 14.2132 2.13604 12.4985 2.05708 11.3592L1.57202 3.9027C1.53818 3.44019 1.89915 3.03409 2.36166 3.00025C2.83544 2.9664 3.23028 3.32739 3.26412 3.7899L3.74917 11.2351C3.82814 12.3406 3.83943 12.5098 5.11414 12.5098H9.86328C11.138 12.5098 11.1493 12.3406 11.2282 11.2351L11.7133 3.7899C11.7471 3.32739 12.1307 2.9664 12.6158 3.00025C13.0783 3.03409 13.4392 3.42891 13.4054 3.9027L12.9203 11.3479C12.8414 12.4985 12.7286 14.2132 9.86328 14.2132V14.2132Z" fill="#B3B3B3"/>
</svg>
