<svg width="133" height="30" viewBox="0 0 133 30" fill="none" xmlns="http://www.w3.org/2000/svg">
<path d="M4.23005 1.15941C4.23005 0.47235 4.53064 0.128823 5.13181 0.128823H6.67768C7.34327 0.128823 7.67606 0.45088 7.67606 1.09499V5.12071C7.67606 5.65747 7.93371 5.92585 8.449 5.92585H10.1881C10.8537 5.92585 11.1865 6.24791 11.1865 6.89202V8.53451C11.1865 9.20009 10.8644 9.53289 10.2203 9.53289H8.4812C7.94444 9.53289 7.67606 9.65097 7.67606 9.88715C7.67606 10.1233 7.93371 10.4991 8.449 11.0143C9.35076 11.9376 10.1988 12.8608 10.9932 13.784C11.53 14.4496 11.5837 15.0937 11.1543 15.7164L10.3813 16.7792C9.88752 17.4877 9.3937 17.477 8.89988 16.747L8.25576 15.7164C7.8693 15.1152 7.67606 15.0937 7.67606 15.652V28.7597C7.67606 29.4253 7.354 29.7581 6.70989 29.7581H5.22843C4.56284 29.7581 4.23005 29.436 4.23005 28.7919V19.259C4.23005 18.529 4.06902 18.5183 3.74697 19.2268C3.51079 19.7636 3.22094 20.3325 2.87741 20.9337C2.38359 21.7066 1.79315 21.7818 1.1061 21.1591L0.719631 20.7727C-0.053306 20.0427 -0.203599 19.3342 0.268751 18.6471C1.83609 16.1136 2.97403 13.3332 3.68255 10.3058C3.76844 9.79053 3.55373 9.53289 3.03844 9.53289H1.23492C0.569338 9.53289 0.236545 9.21083 0.236545 8.56672V6.92422C0.236545 6.25864 0.558602 5.92585 1.20272 5.92585H3.42491C3.96167 5.92585 4.23005 5.6682 4.23005 5.15291V1.15941ZM11.1865 1.83572C11.1865 1.14867 11.4871 0.805142 12.0882 0.805142H25.7435C26.3876 0.805142 26.6667 1.1272 26.5808 1.77131C25.9796 4.906 25.3785 7.66496 24.7773 10.0482C24.6699 10.5635 24.8739 10.8211 25.3892 10.8211H27.6436C28.3092 10.8211 28.642 11.1432 28.642 11.7873C28.7064 12.9037 28.642 13.6767 28.4487 14.1061C27.7402 16.5967 26.613 19.1731 25.0671 21.8355C24.5948 22.5225 24.6592 23.113 25.2604 23.6068C26.4627 24.5085 27.6758 25.2385 28.8996 25.7968C29.5867 26.1188 29.7477 26.6663 29.3827 27.4393L28.803 28.7275C28.4809 29.3931 27.9979 29.597 27.3537 29.3394C25.7649 28.6094 24.2727 27.7076 22.8772 26.6341C22.1901 26.0759 21.546 26.0651 20.9448 26.6019C19.0983 28.1692 17.3807 29.2642 15.7919 29.8869C15.1263 30.1445 14.6218 29.962 14.2782 29.3394L13.6019 28.0512C13.194 27.2353 13.3228 26.6985 13.9884 26.4409C15.6201 25.7753 17.0372 24.9487 18.2395 23.961C18.8192 23.4243 18.8407 22.8124 18.3039 22.1253C17.5954 21.1377 16.9298 20.0319 16.3072 18.8081C16.0281 18.2928 15.8348 18.2928 15.7275 18.8081C15.0834 22.1575 13.7629 25.26 11.7662 28.1156C11.2938 28.7382 10.7249 28.8026 10.0593 28.3088L9.41517 27.7935C8.62076 27.1494 8.45973 26.4946 8.93208 25.829C10.9718 22.6513 12.1956 19.3019 12.6035 15.7808C13.0329 12.2596 13.2906 8.62039 13.3765 4.86306C13.3765 4.34777 13.1188 4.09012 12.6035 4.09012H12.1849C11.5193 4.09012 11.1865 3.76807 11.1865 3.12395V1.83572ZM22.1364 4.89527C22.2223 4.3585 22.0076 4.09012 21.4923 4.09012H17.8531C17.3378 4.09012 17.0587 4.34777 17.0157 4.86306L16.7581 10.0482C16.7366 10.5635 16.9835 10.8211 17.4988 10.8211H20.0753C20.5905 10.8211 20.9341 10.4991 21.1058 9.85494C21.4923 8.20172 21.8358 6.54849 22.1364 4.89527ZM24.4552 14.9756C24.6485 14.4174 24.4982 14.1383 24.0044 14.1383H18.5294C17.9711 14.1383 17.8638 14.4711 18.2073 15.1367C19.0876 16.8758 20.0538 18.4002 21.1058 19.7099C21.4708 20.1608 21.8895 20.0319 22.3619 19.3234C23.3066 17.7775 24.0044 16.3283 24.4552 14.9756Z" fill="#4D4D4D"/>
<path d="M51.0636 1.03058C51.0636 0.343527 51.3749 0 51.9975 0H53.64C54.3056 0 54.6384 0.322057 54.6384 0.966171C54.6384 1.63176 54.8961 1.96455 55.4113 1.96455H61.7881C62.4537 1.96455 62.7864 2.2866 62.7864 2.93072V4.37997C62.7864 5.04556 62.4644 5.37835 61.8203 5.37835H55.4436C54.9068 5.37835 54.6384 5.59306 54.6384 6.02247C54.6384 6.47335 54.8961 6.69879 55.4113 6.69879H60.6931C61.3587 6.69879 61.6915 7.02084 61.6915 7.66496V15.4909C61.6915 16.1565 61.3694 16.4893 60.7253 16.4893H56.6996C56.0125 16.4893 55.991 16.6718 56.6352 17.0368C58.2669 17.9171 59.8987 18.8725 61.5304 19.9031C62.3463 20.4399 62.5288 21.0303 62.0779 21.6744L61.3372 22.7372C60.8434 23.4243 60.2959 23.5531 59.6947 23.1237C58.2777 22.0716 56.8499 21.0947 55.4113 20.193C54.8961 19.8924 54.6384 19.9997 54.6384 20.515V23.961C54.6384 24.6266 54.3164 24.9594 53.6722 24.9594H52.062C51.3964 24.9594 51.0636 24.6374 51.0636 23.9932V19.4844C51.0636 18.9262 50.763 18.9692 50.1618 19.6133C48.6159 21.0947 46.952 22.3615 45.1699 23.4135C44.4829 23.8 43.9354 23.6712 43.5274 23.0271L42.8189 21.8033C42.368 21.0303 42.4861 20.4936 43.1732 20.193C44.9123 19.2912 46.4474 18.3143 47.7786 17.2623C48.3798 16.747 48.4227 16.4893 47.9074 16.4893H45.1055C44.4399 16.4893 44.1071 16.1673 44.1071 15.5231V7.69716C44.1071 7.03158 44.4292 6.69879 45.0733 6.69879H50.2584C50.7952 6.69879 51.0636 6.48408 51.0636 6.05467C51.0636 5.60379 50.8059 5.37835 50.2906 5.37835H44.2038C43.5382 5.37835 43.2054 5.05629 43.2054 4.41218V2.96292C43.2054 2.29734 43.5274 1.96455 44.1716 1.96455H50.2584C50.7952 1.96455 51.0636 1.65323 51.0636 1.03058ZM37.6016 1.51367C38.2242 0.848083 38.8469 0.69779 39.4695 1.06279C40.1136 1.47073 40.7578 1.95381 41.4019 2.51204C42.0675 3.09175 42.1426 3.69292 41.6273 4.31556L40.5967 5.57159C40.06 6.2157 39.4695 6.2157 38.8254 5.57159C38.1813 4.88453 37.5372 4.31556 36.8931 3.86468C36.3134 3.43527 36.3456 2.86631 36.9897 2.15778L37.6016 1.51367ZM35.7659 7.60054C36.4315 6.93496 37.0756 6.7954 37.6982 7.18187C38.4282 7.63275 39.1582 8.15878 39.8882 8.75995C40.5323 9.36112 40.586 9.98377 40.0492 10.6279L39.0186 11.9161C38.5034 12.5173 37.9237 12.5065 37.2795 11.8839C36.5281 11.1968 35.7659 10.5849 34.9929 10.0482C34.3488 9.61877 34.3381 9.08201 34.9607 8.43789L35.7659 7.60054ZM51.0636 10.9821C51.0636 10.4454 50.8059 10.177 50.2906 10.177H48.4871C47.9504 10.177 47.682 10.4346 47.682 10.9499V12.2382C47.682 12.7749 47.9396 13.0433 48.4549 13.0433H50.2584C50.7952 13.0433 51.0636 12.7857 51.0636 12.2704V10.9821ZM58.1488 10.9821C58.1488 10.4454 57.8912 10.177 57.3759 10.177H55.4436C54.9068 10.177 54.6384 10.4346 54.6384 10.9499V12.2382C54.6384 12.7749 54.8961 13.0433 55.4113 13.0433H57.3437C57.8804 13.0433 58.1488 12.7857 58.1488 12.2704V10.9821ZM34.1556 15.2011C34.1556 14.514 34.4669 14.1705 35.0895 14.1705H40.0814C40.747 14.1705 41.0798 14.4926 41.0798 15.1367V23.5424C41.0798 24.0577 41.4019 24.4656 42.046 24.7662C43.2913 25.2815 44.9767 25.5821 47.1023 25.6679L52.4806 25.7968H57.5691C59.6518 25.7109 61.4768 25.5391 63.0441 25.2815C63.6882 25.1741 63.8707 25.4425 63.5916 26.0866C63.2051 26.9025 62.8938 27.7184 62.6576 28.5342C62.4644 29.1784 62.0457 29.5004 61.4016 29.5004H50.3228C48.4764 29.4575 46.6836 29.2964 44.9445 29.0173C43.3127 28.7812 41.7776 28.2444 40.3391 27.407C39.8238 27.085 39.3085 27.1816 38.7932 27.6969L37.3439 29.1462C36.6998 29.7903 36.1738 29.7903 35.7659 29.1462L34.7031 27.5359C34.1663 26.8059 34.2522 26.3013 34.9607 26.0222L36.571 25.3459C37.1292 25.0882 37.4084 24.7125 37.4084 24.2187V18.5827C37.4084 18.0459 37.1507 17.7775 36.6354 17.7775H35.1218C34.4776 17.7775 34.1556 17.4555 34.1556 16.8114V15.2011Z" fill="#4D4D4D"/>
<path d="M72.2292 0.998377C72.5297 0.332792 73.0021 0.182499 73.6462 0.547497L74.548 1.06279C75.2135 1.44926 75.4283 1.96455 75.1921 2.60866C74.4836 4.36924 73.3134 6.18349 71.6817 8.05142C71.0805 8.69554 70.5223 8.70627 70.007 8.08363L69.234 7.11746C68.7617 6.51629 68.8476 5.87217 69.4917 5.18512C70.737 3.70366 71.6495 2.30808 72.2292 0.998377ZM80.1196 1.15941C80.1196 0.47235 80.4201 0.128823 81.0213 0.128823H82.4706C83.1362 0.128823 83.4689 0.45088 83.4689 1.09499V7.21408C83.4689 7.75084 83.587 8.01922 83.8232 8.01922C84.1023 8.01922 84.2419 7.76157 84.2419 7.24628V3.47822C84.2419 2.81263 84.5639 2.47984 85.2081 2.47984H86.5929C87.2585 2.47984 87.5913 2.8019 87.5913 3.44601V7.43952C87.5913 8.16951 87.7416 8.18025 88.0422 7.47172C88.901 5.13144 89.5451 3.04881 89.9745 1.22382C90.1463 0.579703 90.5542 0.364998 91.1983 0.579703L92.7764 1.09499C93.4205 1.3097 93.6674 1.73911 93.5171 2.38322L92.8086 4.76644C92.6798 5.28173 92.873 5.53938 93.3883 5.53938H97.414C98.0796 5.53938 98.4124 5.86144 98.4124 6.50555V8.14804C98.4124 8.79216 98.348 9.12495 98.2192 9.14642C98.0903 9.14642 97.9722 9.46847 97.8649 10.1126C97.4784 13.4405 96.6733 16.7684 95.4495 20.0964C95.2562 20.5687 95.3314 21.1484 95.6749 21.8355C96.4049 23.231 97.1778 24.4549 97.9937 25.5069C98.4446 26.1081 98.3909 26.7522 97.8327 27.4393L96.7699 28.7275C96.2331 29.3931 95.75 29.4145 95.3206 28.7919C94.6336 27.7398 94.0217 26.6878 93.4849 25.6357C93.2273 25.1204 92.873 25.2063 92.4221 25.8934C91.821 26.9025 90.887 27.9653 89.6202 29.0817C88.9976 29.5326 88.4608 29.4253 88.0099 28.7597L87.1726 27.4715C86.7647 26.8488 86.8935 26.2691 87.5591 25.7324C88.8902 24.5729 90.0174 23.1559 90.9407 21.4812C91.2198 20.9659 91.2413 20.3862 91.0051 19.7421C90.3824 17.9386 89.8457 16.1351 89.3948 14.3315C89.266 13.7518 89.1049 13.623 88.9117 13.9451C88.7399 14.2457 88.3964 14.2242 87.8811 13.8807C87.3658 13.5371 87.1082 13.623 87.1082 14.1383V14.9756C87.1082 15.6412 86.7861 15.974 86.142 15.974H76.738C76.0724 15.974 75.7396 15.652 75.7396 15.0079V13.623C75.7396 12.9574 76.0616 12.6246 76.7057 12.6246H85.3369C85.8522 12.6246 86.0776 12.5817 86.0132 12.4958C85.9058 12.3885 85.9273 12.1738 86.0776 11.8517C86.2494 11.4867 86.0776 11.3042 85.5623 11.3042H76.9956C76.3515 11.3042 76.0187 11.1861 75.9972 10.9499C75.9543 10.6064 75.7503 10.7889 75.3853 11.4974C75.1277 12.0127 74.8271 12.528 74.4836 13.0433C74.3762 13.1936 74.3225 13.5264 74.3225 14.0417V28.6309C74.3225 29.2964 74.0005 29.6292 73.3564 29.6292H72.0037C71.3381 29.6292 71.0053 29.3072 71.0053 28.6631V18.4217C71.0053 17.9064 70.9087 17.7024 70.7155 17.8098C70.5437 17.9386 70.1895 17.6595 69.6527 16.9724L69.1052 16.2317C68.5684 15.5446 68.5684 14.9005 69.1052 14.2993C70.8014 12.3455 72.1647 10.3166 73.1953 8.21245C73.5389 7.48246 74.0649 7.31069 74.7734 7.69716L75.1277 7.8904C75.7074 8.21245 75.9972 8.13731 75.9972 7.66496V3.47822C75.9972 2.81263 76.3193 2.47984 76.9634 2.47984H78.3482C79.0138 2.47984 79.3466 2.8019 79.3466 3.44601V7.21408C79.3466 7.75084 79.4647 8.01922 79.7009 8.01922C79.98 8.01922 80.1196 7.76157 80.1196 7.24628V1.15941ZM94.4511 9.98377C94.537 9.42553 94.3223 9.14642 93.807 9.14642H92.4865C91.9712 9.14642 91.7673 9.46847 91.8746 10.1126C92.1537 11.637 92.5295 13.2151 93.0018 14.8468C93.1736 15.4051 93.3454 15.3406 93.5171 14.6536C93.9036 13.3868 94.2149 11.8302 94.4511 9.98377ZM77.1566 17.9708C77.1566 17.3052 77.4787 16.9724 78.1228 16.9724H79.6365C80.302 16.9724 80.6348 17.2945 80.6348 17.9386C80.6134 20.2359 80.4738 22.1575 80.2162 23.7034C79.98 25.2707 79.2285 26.881 77.9618 28.5342C77.3606 29.1784 76.7594 29.1891 76.1582 28.5665L75.6108 27.9223C75.031 27.2782 74.9988 26.6341 75.5141 25.99C76.4374 24.6374 76.9419 23.0271 77.0278 21.1591C77.1137 20.1071 77.1566 19.0443 77.1566 17.9708ZM81.9553 17.9708C81.9553 17.3052 82.2773 16.9724 82.9214 16.9724H84.3707C85.0363 16.9724 85.3691 17.2945 85.3691 17.9386V21.9321C85.3691 22.4688 85.7019 22.5655 86.3675 22.2219C86.4533 22.2005 86.55 22.1468 86.6573 22.0609C87.3444 21.7174 87.8167 21.8677 88.0744 22.5118C88.1388 22.8124 88.2354 23.1452 88.3642 23.5102C88.5574 24.1543 88.2461 24.734 87.4302 25.2493C86.185 26.0437 84.6928 26.8381 82.9537 27.6325C82.3095 27.9331 81.8265 27.7506 81.5044 27.085L80.9569 25.7968C80.6778 25.1312 80.7744 24.691 81.2467 24.4763C81.7191 24.2616 81.9553 23.8966 81.9553 23.3813V17.9708Z" fill="#4D4D4D"/>
<path d="M115.939 1.15941C115.939 0.47235 116.239 0.128823 116.84 0.128823H118.869C119.535 0.128823 119.868 0.45088 119.868 1.09499V1.6747C119.868 2.21146 120.125 2.47984 120.641 2.47984H131.236C131.902 2.47984 132.235 2.8019 132.235 3.44601V4.89527C132.235 5.56085 131.913 5.89364 131.269 5.89364H126.019C125.504 5.89364 125.128 6.2157 124.892 6.85981L124.634 7.69716C124.484 8.23392 124.666 8.5023 125.182 8.5023H130.141C130.807 8.5023 131.14 8.82436 131.14 9.46847V25.7646C130.947 27.9975 129.776 29.2964 127.629 29.6614C126.921 29.7473 126.212 29.7795 125.504 29.7581C125.16 29.6937 124.806 29.6614 124.441 29.6614C123.733 29.5541 123.303 29.114 123.153 28.341L122.799 26.6663C122.67 25.9578 122.917 25.6894 123.539 25.8612C124.205 26.0115 124.87 26.1188 125.536 26.1832C126.18 26.2691 126.663 26.1832 126.985 25.9256C127.243 25.7324 127.425 25.3781 127.533 24.8628V12.7857C127.533 12.2489 127.275 11.9805 126.76 11.9805H122.927C122.391 11.9805 122.122 12.2489 122.122 12.7857C121.972 13.4942 122.348 13.8699 123.249 13.9129C123.486 13.8699 123.647 13.6015 123.733 13.1077C123.754 12.6139 124.087 12.5173 124.731 12.8179L126.051 13.4298C126.76 13.7518 127.071 14.2134 126.985 14.8146L126.728 15.7164C126.556 16.4893 126.041 16.8865 125.182 16.908C122.756 17.1871 120.898 17.0046 119.61 16.3605C118.773 15.6305 118.451 14.4389 118.644 12.7857C118.644 12.2489 118.386 11.9805 117.871 11.9805H116.518C116.003 11.9805 115.681 12.3026 115.552 12.9467C115.316 14.5355 114.522 15.8237 113.169 16.8114C112.611 17.2193 112.664 17.4233 113.33 17.4233H123.539C124.205 17.4233 124.538 17.7453 124.538 18.3895V24.3797C124.538 25.0453 124.216 25.3781 123.571 25.3781H115.005C114.468 25.3781 114.2 25.6679 114.2 26.2476C114.2 26.8703 113.878 27.1816 113.233 27.1816H111.655C110.99 27.1816 110.657 26.8596 110.657 26.2154V18.9369C110.657 18.4217 110.442 18.2177 110.013 18.325C109.583 18.4539 109.208 18.1962 108.886 17.5521L108.725 17.23C108.36 16.5859 108.177 16.5967 108.177 17.2623V28.7597C108.177 29.4253 107.855 29.7581 107.211 29.7581H105.568C104.903 29.7581 104.57 29.436 104.57 28.7919V9.50068C104.57 8.8351 104.892 8.5023 105.536 8.5023H109.787C110.303 8.5023 110.539 8.18025 110.496 7.53613L110.303 6.69879C110.152 6.16202 109.82 5.89364 109.304 5.89364H104.409C103.744 5.89364 103.411 5.57159 103.411 4.92747V3.47822C103.411 2.81263 103.733 2.47984 104.377 2.47984H115.134C115.67 2.47984 115.939 2.22219 115.939 1.7069V1.15941ZM121.059 6.7632C121.188 6.18349 121.016 5.89364 120.544 5.89364H114.747C114.232 5.89364 114.028 6.2157 114.135 6.85981L114.328 7.69716C114.436 8.23392 114.747 8.5023 115.262 8.5023H119.739C120.254 8.5023 120.63 8.18025 120.866 7.53613L121.059 6.7632ZM111.881 12.8179C112.053 12.2596 111.881 11.9805 111.366 11.9805H108.982C108.446 11.9805 108.177 12.2382 108.177 12.7535V14.4282C108.177 14.9434 108.499 15.1045 109.143 14.9112C110.474 14.5033 111.387 13.8055 111.881 12.8179ZM120.931 21.4168C120.931 20.88 120.684 20.6116 120.19 20.6116H115.005C114.468 20.6116 114.2 20.8586 114.2 21.3524C114.2 21.8891 114.457 22.1575 114.973 22.1575H120.125C120.662 22.1575 120.931 21.9106 120.931 21.4168Z" fill="#4D4D4D"/>
</svg>
